<?xml version="1.0" encoding="utf-8"?>
<!-- Generator: Adobe Illustrator 22.0.1, SVG Export Plug-In . SVG Version: 6.00 Build 0)  -->
<svg version="1.1" id="Calque_1" xmlns="http://www.w3.org/2000/svg" xmlns:xlink="http://www.w3.org/1999/xlink" x="0px" y="0px"
	 viewBox="0 0 552 552" style="enable-background:new 0 0 552 552;" xml:space="preserve">
<style type="text/css">
	.st0{fill:none;stroke:#61DAFB;stroke-width:20;stroke-miterlimit:10;}
</style>
<path class="st0" d="M274.9,55C149.8,55,48.4,156.4,48.4,281.5c0,100.3,64.9,184.9,154.9,214.9c11.3,2,15.6-4.8,15.6-10.8
	c0-5.4-0.3-23.2-0.3-42.2c-56.9,10.5-71.6-13.9-76.1-26.7c-2.6-6.5-13.6-26.6-23.2-32c-7.9-4.3-19.2-14.7-0.3-15
	c17.8-0.3,30.6,16.4,34.8,23.2c20.4,34.3,52.9,24.6,66,18.7c2-14.7,7.9-24.6,14.4-30.3c-50.4-5.6-103.1-25.2-103.1-111.8
	c0-24.6,8.8-45,23.2-60.9c-2.3-5.6-10.2-28.9,2.3-60c0,0,19-5.9,62.3,23.2c18.1-5.1,37.4-7.7,56.6-7.7c19.2,0,38.5,2.6,56.6,7.7
	c43.4-29.4,62.4-23.2,62.4-23.2c12.5,31.1,4.5,54.3,2.3,60c14.4,15.9,23.2,35.9,23.2,60.9c0,86.9-52.9,106.2-103.3,111.8
	c8.2,7.1,15.3,20.7,15.3,41.9c0,30.3-0.3,54.6-0.3,62.3c0,5.9,4.3,13,15.6,10.8c89.5-30,154.4-115,154.4-214.9
	C501.5,156.4,400.1,55,274.9,55z"/>
</svg>
