<svg id="Calque_1" data-name="Calque 1" xmlns="http://www.w3.org/2000/svg" viewBox="0 0 215.5 215.5"><defs><style>.cls-1{fill:none;stroke:#61dafb;stroke-miterlimit:10;stroke-width:2px;}.cls-2{fill:#61dafb;}</style></defs><title>curved</title><circle class="cls-1" cx="107.75" cy="107.75" r="106.75"/><path class="cls-2" d="M78.18,180.08s9.1,16.37,0,30.32a50.89,50.89,0,0,0,29.11-15.77S100.62,181.9,78.18,180.08Z" transform="translate(-42 -42)"/><path class="cls-2" d="M135.8,236.48s16.38-9.09,30.33,0a50.92,50.92,0,0,0-15.77-29.11S137.62,214,135.8,236.48Z" transform="translate(-42 -42)"/><path class="cls-2" d="M222.53,178.86s-9.09,16.38,0,30.33a50.92,50.92,0,0,1-29.11-15.77S200.09,180.68,222.53,178.86Z" transform="translate(-42 -42)"/><path class="cls-2" d="M225,89.1s-14.56,29.11-42.46,29.11c-23.05,0-32.75-30.33-32.75-30.33s-9.7,30.33-32.75,30.33c-27.9,0-42.46-29.11-42.46-29.11s-13.34,59.44,44.88,59.44c20.63,0,30.33,30.32,30.33,30.32s9.7-30.32,30.33-30.32C238.3,148.54,225,89.1,225,89.1Z" transform="translate(-42 -42)"/></svg>