<?xml version="1.0"?>
<svg xmlns="http://www.w3.org/2000/svg" height="512px" viewBox="0 -13 455.29206 455" width="512px" class=""><g><path d="m63.417969 428.746094h237.980469c.300781-.003906.597656-.027344.894531-.074219.945312.042969 1.890625.074219 2.847656.074219 32.6875 0 60.460937-24.695313 65.425781-57.125 47.601563-3.46875 84.511719-42.988282 84.726563-90.714844.210937-47.726562-36.351563-87.574219-83.917969-91.464844v-60.160156h69.078125c3.3125 0 6-2.683594 6-6v-79.59375c-.027344-24.035156-19.503906-43.515625-43.539063-43.542969-.5 0-.992187.023438-1.488281.039063-.21875-.023438-.4375-.035156-.65625-.039063h-289.214843c-26.785157.085938-48.550782 21.640625-48.898438 48.421875l-2.179688 266.734375h-54.476562c-3.3125 0-6 2.6875-6 6v39.871094c0 35.847656 27.511719 65.253906 62.125 67.425781.425781.097656.859375.144532 1.292969.148438zm356.617187-92.113282c-14.570312 14.566407-34.230468 22.902344-54.832031 23.242188-.128906 0-.253906 0-.382813.007812-37.957031.445313-70.917968-26.046874-78.648437-63.210937-7.734375-37.164063 11.925781-74.601563 46.910156-89.335937 34.984375-14.734376 75.503907-2.636719 96.6875 28.863281 21.183594 31.5 17.105469 73.589843-9.734375 100.433593zm14.417969-292.941406v73.589844h-63.078125v-73.59375c.097656-17.347656 14.191406-31.359375 31.539062-31.359375 17.351563 0 31.441407 14.011719 31.539063 31.359375zm-359.800781 4.992188c.269531-20.207032 16.695312-36.464844 36.902344-36.53125h261.390624c-8.664062 8.203125-13.574218 19.609375-13.570312 31.539062v145.535156c-35.589844 1.761719-66.910156 24.058594-80.222656 57.113282-.648438-2.695313-3.058594-4.597656-5.828125-4.601563h-29.554688c-3.3125 0-6 2.6875-6 6 0 3.316407 2.6875 6 6 6h29.554688c1.308593 0 2.585937-.429687 3.625-1.226562-8.671875 26.871093-4.425781 56.246093 11.503906 79.558593 15.925781 23.316407 41.742187 37.953126 69.929687 39.648438-4.855468 25.703125-27.136718 45.019531-53.277343 45.019531-29.902344 0-54.238281-24.929687-54.238281-55.570312v-39.867188c0-3.316406-2.683594-6-6-6h-172.390626zm-62.652344 312.488281v-33.871094h226.867188v33.871094c-.054688 22.074219 10.621093 42.800781 28.625 55.570313h-201.257813c-29.90625.003906-54.234375-24.929688-54.234375-55.570313zm0 0" data-original="#000000" class="active-path" data-old_color="#6981bd" fill="#6981bd"/><path d="m113.113281 112.453125h50.136719c3.3125 0 6-2.6875 6-6 0-3.316406-2.6875-6-6-6h-50.136719c-3.3125 0-6 2.683594-6 6 0 3.3125 2.6875 6 6 6zm0 0" data-original="#000000" class="active-path" data-old_color="#6981bd" fill="#6981bd"/><path d="m312.574219 183.097656c3.3125 0 6-2.6875 6-6s-2.6875-6-6-6h-74.644531c-3.3125 0-6 2.6875-6 6s2.6875 6 6 6zm0 0" data-original="#000000" class="active-path" data-old_color="#6981bd" fill="#6981bd"/><path d="m189.179688 171.097656c-3.3125 0-6 2.6875-6 6s2.6875 6 6 6h23.375c3.3125 0 6-2.6875 6-6s-2.6875-6-6-6zm0 0" data-original="#000000" class="active-path" data-old_color="#6981bd" fill="#6981bd"/><path d="m113.113281 183.097656h50.277344c3.3125 0 6-2.6875 6-6s-2.6875-6-6-6h-50.277344c-3.3125 0-6 2.6875-6 6s2.6875 6 6 6zm0 0" data-original="#000000" class="active-path" data-old_color="#6981bd" fill="#6981bd"/><path d="m218.375 241.746094h-105.261719c-3.3125 0-6 2.6875-6 6s2.6875 6 6 6h105.261719c3.3125 0 6-2.6875 6-6s-2.6875-6-6-6zm0 0" data-original="#000000" class="active-path" data-old_color="#6981bd" fill="#6981bd"/><path d="m298.167969 112.453125h14.398437c3.316406 0 6-2.6875 6-6 0-3.316406-2.683594-6-6-6h-14.398437c-3.3125 0-6 2.683594-6 6 0 3.3125 2.6875 6 6 6zm0 0" data-original="#000000" class="active-path" data-old_color="#6981bd" fill="#6981bd"/><path d="m188.191406 112.453125h84.691406c3.316407 0 6-2.6875 6-6 0-3.316406-2.683593-6-6-6h-84.691406c-3.3125 0-6 2.683594-6 6 0 3.3125 2.6875 6 6 6zm0 0" data-original="#000000" class="active-path" data-old_color="#6981bd" fill="#6981bd"/><path d="m357.898438 238.179688v70.851562l-24.910157-23.183594c-2.425781-2.257812-6.222656-2.121094-8.480469.304688-2.253906 2.425781-2.117187 6.222656.308594 8.480468l35 32.574219c2.300782 2.144531 5.871094 2.144531 8.171875 0l35-32.574219c2.429688-2.257812 2.566407-6.054687.308594-8.480468-2.257813-2.425782-6.054687-2.5625-8.480469-.304688l-24.917968 23.183594v-70.851562c0-3.3125-2.683594-6-6-6-3.3125 0-6 2.6875-6 6zm0 0" data-original="#000000" class="active-path" data-old_color="#6981bd" fill="#6981bd"/></g> </svg>
